<svg width="40" height="40" viewBox="0 0 40 40" fill="none" xmlns="http://www.w3.org/2000/svg">
<rect width="40" height="40" rx="20" fill="white"/>
<mask id="mask0_198_589" style="mask-type:alpha" maskUnits="userSpaceOnUse" x="8" y="8" width="24" height="24">
<rect x="8" y="8" width="24" height="24" fill="#D9D9D9"/>
</mask>
<g mask="url(#mask0_198_589)">
<path d="M13 29C12.45 29 11.9792 28.8042 11.5875 28.4125C11.1958 28.0208 11 27.55 11 27V14.5C11 14.2667 11.0375 14.0458 11.1125 13.8375C11.1875 13.6292 11.3 13.4333 11.45 13.25L12.85 11.55C13 11.3667 13.1708 11.2292 13.3625 11.1375C13.5542 11.0458 13.7667 11 14 11H26C26.2333 11 26.4458 11.0458 26.6375 11.1375C26.8292 11.2292 27 11.3667 27.15 11.55L28.55 13.25C28.7 13.4333 28.8125 13.6292 28.8875 13.8375C28.9625 14.0458 29 14.2667 29 14.5V27C29 27.55 28.8042 28.0208 28.4125 28.4125C28.0208 28.8042 27.55 29 27 29H13ZM13.4 14H26.6L25.75 13H14.25L13.4 14ZM13 27H27V16H13V27ZM22.55 25.05L26.1 21.5L22.55 17.95L21.1 19.4L23.2 21.5L21.1 23.6L22.55 25.05ZM17.5 25.05L18.95 23.6L16.85 21.5L18.95 19.4L17.5 17.95L13.95 21.5L17.5 25.05Z" fill="#1C1B1F"/>
</g>
</svg>
