<svg width="155" height="74" viewBox="0 0 155 74" fill="none" xmlns="http://www.w3.org/2000/svg">
<path d="M50.125 13.7035C42.5804 13.7035 36.4569 19.8572 36.4569 27.3812C36.4569 34.9052 42.5804 41.0589 50.125 41.0589C57.6696 41.0589 63.7931 34.9311 63.7931 27.3812C63.819 19.8313 57.6696 13.7035 50.125 13.7035ZM50.125 36.5083C45.0867 36.5083 41.0043 32.4231 41.0043 27.3812C41.0043 22.3393 45.0867 18.2541 50.125 18.2541C55.1634 18.2541 59.2457 22.3393 59.2457 27.3812C59.2457 32.4231 55.1634 36.5083 50.125 36.5083ZM72.9397 0H77.4871V40.3866H72.9397V0ZM155 14.3758V40.3866H150.453V18.9522H141.332V40.3866H136.784V18.9522H127.664V40.3866H123.116V14.3758H155ZM28.163 9.64418L21.5744 16.2374C19.3266 14.6343 16.6136 13.7035 13.6681 13.7035C6.12352 13.7035 0 19.8313 0 27.3812C0 34.1554 4.93499 39.7919 11.3944 40.8779V45.8422C4.93499 46.9281 0 52.5647 0 59.3389C0 66.8887 6.12352 73.0165 13.6681 73.0165C21.2127 73.0165 27.3362 66.8887 27.3362 59.3389C27.3362 52.5647 22.4012 46.9281 15.9418 45.8422V40.9037C22.4012 39.8178 27.3362 34.1813 27.3362 27.4071C27.3362 24.4595 26.4061 21.7188 24.8041 19.4952L31.3927 12.902L28.163 9.64418ZM22.763 59.3389C22.763 64.3807 18.6806 68.4659 13.6423 68.4659C8.60393 68.4659 4.52159 64.3807 4.52159 59.3389C4.52159 54.297 8.60393 50.2118 13.6423 50.2118C18.6806 50.2118 22.763 54.297 22.763 59.3389ZM13.6423 36.5083C8.60393 36.5083 4.52159 32.4231 4.52159 27.3812C4.52159 22.3393 8.60393 18.2541 13.6423 18.2541C18.6806 18.2541 22.763 22.3393 22.763 27.3812C22.763 32.4231 18.6806 36.5083 13.6423 36.5083ZM100.508 13.7035C96.6328 13.7035 93.1189 15.1256 90.6126 17.7112C88.1839 20.2192 86.8403 23.658 86.8403 27.4071C86.8403 31.1561 88.158 34.5949 90.5351 37.0771C93.0413 39.6885 96.5036 41.0847 100.534 41.0847C104.875 41.0847 109.345 38.9646 111.696 35.836L108.053 33.0953C106.554 35.1121 103.454 36.5083 100.534 36.5083C95.806 36.5083 92.3954 33.7417 91.5944 29.4238H113.763V27.1485C113.763 23.5287 112.471 20.1675 110.146 17.6853C107.691 15.1256 104.281 13.7035 100.508 13.7035ZM91.6978 24.8732C92.6796 20.8656 96.0385 18.2541 100.534 18.2541C104.849 18.2541 108.079 20.8914 108.957 24.8732H91.6978Z" fill="#1F1F1F"/>
</svg>
