<svg width="12" height="12" viewBox="0 0 12 12" fill="none" xmlns="http://www.w3.org/2000/svg">
<path d="M5.11054 0.731143C5.48252 0.00715244 6.51748 0.0071516 6.88946 0.731142L8.2291 3.33845C8.32455 3.52422 8.47578 3.67545 8.66155 3.7709L11.2689 5.11054C11.9928 5.48252 11.9928 6.51748 11.2689 6.88946L8.66156 8.2291C8.47578 8.32455 8.32455 8.47578 8.2291 8.66155L6.88946 11.2689C6.51748 11.9928 5.48252 11.9928 5.11054 11.2689L3.7709 8.66156C3.67545 8.47578 3.52422 8.32455 3.33845 8.2291L0.731143 6.88946C0.00715244 6.51748 0.0071516 5.48252 0.731142 5.11054L3.33845 3.7709C3.52422 3.67545 3.67545 3.52422 3.7709 3.33845L5.11054 0.731143Z" fill="white"/>
</svg>
