<svg width="24" height="24" viewBox="0 0 24 24" fill="none" xmlns="http://www.w3.org/2000/svg">
<mask id="mask0_2004_701" style="mask-type:alpha" maskUnits="userSpaceOnUse" x="0" y="0" width="24" height="24">
<rect width="24" height="24" fill="#D9D9D9"/>
</mask>
<g mask="url(#mask0_2004_701)">
<path d="M8.5 11.0895C9.2 11.0895 9.78333 10.8425 10.25 10.3487C10.7167 9.8548 11.0417 9.26782 11.225 8.58774L9.775 8.2477C9.69167 8.60394 9.54583 8.92374 9.3375 9.2071C9.12917 9.49047 8.85 9.63215 8.5 9.63215C8.15 9.63215 7.87083 9.49047 7.6625 9.2071C7.45417 8.92374 7.30833 8.60394 7.225 8.2477L5.775 8.58774C5.95833 9.26782 6.28333 9.8548 6.75 10.3487C7.21667 10.8425 7.8 11.0895 8.5 11.0895ZM12 16.433C12.65 16.433 13.275 16.2913 13.875 16.0079C14.475 15.7245 15.0333 15.2995 15.55 14.7328L14.45 13.7612C14.0833 14.1498 13.6917 14.4453 13.275 14.6478C12.8583 14.8502 12.4333 14.9514 12 14.9514C11.5667 14.9514 11.1417 14.8502 10.725 14.6478C10.3083 14.4453 9.91667 14.1498 9.55 13.7612L8.45 14.7328C8.98333 15.2995 9.54583 15.7245 10.1375 16.0079C10.7292 16.2913 11.35 16.433 12 16.433ZM15.5 11.0895C16.2 11.0895 16.7833 10.8425 17.25 10.3487C17.7167 9.8548 18.0417 9.26782 18.225 8.58774L16.775 8.2477C16.6917 8.60394 16.5458 8.92374 16.3375 9.2071C16.1292 9.49047 15.85 9.63215 15.5 9.63215C15.15 9.63215 14.8708 9.49047 14.6625 9.2071C14.4542 8.92374 14.3083 8.60394 14.225 8.2477L12.775 8.58774C12.9583 9.26782 13.2833 9.8548 13.75 10.3487C14.2167 10.8425 14.8 11.0895 15.5 11.0895ZM12 20.8049C10.6167 20.8049 9.31667 20.5499 8.1 20.0398C6.88333 19.5298 5.825 18.8375 4.925 17.9632C4.025 17.0888 3.3125 16.0605 2.7875 14.8785C2.2625 13.6965 2 12.4334 2 11.0895C2 9.7455 2.2625 8.48249 2.7875 7.30045C3.3125 6.1184 4.025 5.09018 4.925 4.21579C5.825 3.3414 6.88333 2.64918 8.1 2.13911C9.31667 1.62905 10.6167 1.37402 12 1.37402C13.3833 1.37402 14.6833 1.62905 15.9 2.13911C17.1167 2.64918 18.175 3.3414 19.075 4.21579C19.975 5.09018 20.6875 6.1184 21.2125 7.30045C21.7375 8.48249 22 9.7455 22 11.0895C22 12.4334 21.7375 13.6965 21.2125 14.8785C20.6875 16.0605 19.975 17.0888 19.075 17.9632C18.175 18.8375 17.1167 19.5298 15.9 20.0398C14.6833 20.5499 13.3833 20.8049 12 20.8049ZM12 18.8618C14.2333 18.8618 16.125 18.1089 17.675 16.603C19.225 15.0971 20 13.2593 20 11.0895C20 8.91969 19.225 7.08185 17.675 5.57595C16.125 4.07006 14.2333 3.31711 12 3.31711C9.76667 3.31711 7.875 4.07006 6.325 5.57595C4.775 7.08185 4 8.91969 4 11.0895C4 13.2593 4.775 15.0971 6.325 16.603C7.875 18.1089 9.76667 18.8618 12 18.8618Z" fill="white"/>
</g>
</svg>
