<svg preserveAspectRatio="none" width="100%" height="100%" overflow="visible" style="display: block;" viewBox="0 0 24 24" fill="none" xmlns="http://www.w3.org/2000/svg">
<g id="sdk">
<mask id="mask0_0_32" style="mask-type:alpha" maskUnits="userSpaceOnUse" x="0" y="0" width="24" height="24">
<rect id="Bounding box" width="24" height="24" fill="var(--fill-0, #D9D9D9)"/>
</mask>
<g mask="url(#mask0_0_32)">
<path id="sdk_2" d="M5 21C4.45 21 3.97917 20.8042 3.5875 20.4125C3.19583 20.0208 3 19.55 3 19V6.5C3 6.26667 3.0375 6.04583 3.1125 5.8375C3.1875 5.62917 3.3 5.43333 3.45 5.25L4.85 3.55C5 3.36667 5.17083 3.22917 5.3625 3.1375C5.55417 3.04583 5.76667 3 6 3H18C18.2333 3 18.4458 3.04583 18.6375 3.1375C18.8292 3.22917 19 3.36667 19.15 3.55L20.55 5.25C20.7 5.43333 20.8125 5.62917 20.8875 5.8375C20.9625 6.04583 21 6.26667 21 6.5V19C21 19.55 20.8042 20.0208 20.4125 20.4125C20.0208 20.8042 19.55 21 19 21H5ZM5.4 6H18.6L17.75 5H6.25L5.4 6ZM5 19H19V8H5V19ZM14.55 17.05L18.1 13.5L14.55 9.95L13.1 11.4L15.2 13.5L13.1 15.6L14.55 17.05ZM9.5 17.05L10.95 15.6L8.85 13.5L10.95 11.4L9.5 9.95L5.95 13.5L9.5 17.05Z" fill="var(--fill-0, #1C1B1F)"/>
</g>
</g>
</svg>
