<svg xmlns="http://www.w3.org/2000/svg" viewBox="0 0 24 24">
  <defs>
    <clipPath id="circle">
      <circle cx="12" cy="12" r="12" />
    </clipPath>
  </defs>
  <g clip-path="url(#circle)">
    <rect width="24" height="12" fill="#ED2939" />
    <rect y="12" width="24" height="12" fill="#FDFDFD" />
    <path d="M7.8 6.4a4.6 4.6 0 1 0 0 11.2 4.6 4.6 0 0 1 0-11.2z" fill="#FDFDFD" />
    <g fill="#FDFDFD" transform="translate(9.4 4.6) scale(0.55)">
      <polygon points="5.5,1.1 6.3,3.4 8.5,3.4 6.7,4.8 7.4,7 5.5,5.7 3.7,7 4.4,4.8 2.6,3.4 4.8,3.4" />
      <polygon points="1.5,3.1 1.9,4.4 3.2,4.4 2.1,5.2 2.5,6.5 1.5,5.7 0.5,6.5 0.9,5.2 -0.2,4.4 1.1,4.4" />
      <polygon points="8.5,5.1 8.9,6.4 10.2,6.4 9.1,7.2 9.5,8.5 8.5,7.7 7.5,8.5 7.9,7.2 6.8,6.4 8.1,6.4" />
      <polygon points="4.9,6.9 5.3,8.2 6.6,8.2 5.5,9 5.9,10.3 4.9,9.5 3.9,10.3 4.3,9 3.2,8.2 4.5,8.2" />
    </g>
  </g>
</svg>
